<?xml version="1.0" encoding="utf-8"?>
<svg version="1.0" width="400.000000pt" height="400.000000pt" viewBox="0 0 400.000000 400.000000" preserveAspectRatio="xMidYMid meet" xmlns="http://www.w3.org/2000/svg">
  <g transform="translate(0.000000,400.000000) scale(0.100000,-0.100000)" fill="#000000" stroke="none">
    <path d="M1434 3838 c-4 -6 -25 -8 -50 -5 -24 2 -44 1 -44 -4 0 -5 -6 -9 -13&#10;-9 -7 0 -31 -9 -53 -21 -21 -11 -30 -17 -19 -14 43 14 75 17 75 8 0 -5 -17&#10;-15 -37 -22 -51 -15 -82 -39 -65 -49 8 -6 3 -15 -18 -30 -16 -13 -30 -29 -30&#10;-37 0 -7 -11 -26 -24 -42 -34 -41 -74 -135 -97 -227 -5 -21 -17 -52 -25 -69&#10;-24 -46 -54 -200 -60 -306 -2 -51 -9 -102 -15 -112 -13 -25 -14 -222 -1 -246&#10;21 -39 18 -91 -8 -118 -22 -23 -24 -34 -23 -108 1 -126 41 -268 86 -306 13&#10;-10 17 -8 22 9 7 23 -11 80 -26 80 -12 0 -32 79 -30 124 0 21 6 56 11 77 6 20&#10;11 60 11 88 2 56 7 61 34 31 10 -11 26 -22 37 -26 16 -5 19 -14 16 -57 -3 -48&#10;-6 -54 -41 -76 -43 -28 -52 -52 -40 -111 7 -36 15 -46 46 -63 20 -10 37 -23&#10;37 -28 0 -5 11 -14 25 -19 22 -8 25 -16 25 -57 0 -62 8 -90 27 -98 13 -5 15 2&#10;9 42 -34 242 -40 342 -24 433 12 66 16 75 38 80 l25 6 -22 12 c-14 8 -23 22&#10;-23 36 0 28 28 116 65 206 18 41 28 88 30 126 4 85 15 145 26 138 5 -3 9 7 10&#10;23 0 15 4 37 8 47 7 18 8 18 14 3 12 -31 34 -20 29 14 -3 21 -1 30 6 25 6 -3&#10;13 3 17 14 7 21 25 28 25 10 0 -15 68 -5 105 14 17 9 38 16 48 16 9 0 17 5 17&#10;11 0 6 8 8 19 4 17 -5 37 17 33 38 -1 4 7 7 17 7 10 0 22 8 25 17 6 15 8 15&#10;16 3 7 -11 10 -12 10 -2 0 7 5 10 10 7 6 -3 13 1 17 11 6 16 7 15 20 -2 12&#10;-17 13 -17 13 0 0 12 5 16 19 11 10 -3 24 1 31 10 9 11 22 14 39 10 16 -3 40&#10;1 59 11 18 9 40 13 50 9 32 -12 82 -15 82 -5 0 6 12 2 28 -9 15 -11 37 -22 49&#10;-26 18 -5 21 -2 19 18 -3 24 -2 24 40 11 24 -7 52 -18 64 -24 11 -6 30 -8 41&#10;-5 11 4 30 0 44 -9 30 -20 36 -20 29 -1 -9 24 3 18 83 -35 41 -27 79 -50 84&#10;-50 5 0 9 -8 9 -19 0 -10 7 -24 15 -31 8 -7 15 -21 15 -31 0 -11 4 -19 9 -19&#10;5 0 20 -27 33 -60 24 -62 38 -71 48 -30 3 13 11 25 17 27 17 6 23 -25 18 -87&#10;-5 -62 18 -120 47 -120 23 0 33 -19 14 -26 -11 -4 -12 -11 -6 -22 5 -10 12&#10;-38 15 -64 7 -57 35 -76 35 -23 0 18 -4 37 -10 40 -15 9 -12 25 5 25 12 0 15&#10;13 13 68 -3 97 3 186 15 193 5 4 4 15 -3 29 -6 12 -9 31 -6 42 3 14 -3 27 -17&#10;39 -27 22 -41 24 -33 4 3 -9 0 -15 -8 -15 -8 0 -19 20 -25 45 -8 32 -19 49&#10;-36 57 -27 12 -41 38 -21 38 8 0 16 -6 19 -12 2 -7 7 -10 11 -7 4 4 -2 22 -13&#10;40 -14 22 -21 28 -21 17 0 -20 -15 -24 -25 -8 -9 15 -25 12 -25 -5 0 -17 -16&#10;-20 -25 -5 -4 6 -11 8 -16 5 -5 -4 -9 3 -9 14 0 14 -5 19 -16 14 -9 -3 -25 3&#10;-37 16 -12 12 -31 29 -42 37 -20 15 -20 15 2 11 19 -4 21 -2 11 19 -6 13 -18&#10;24 -27 24 -11 0 -11 -3 5 -15 18 -14 17 -14 -11 -6 -16 5 -36 11 -43 13 -10 3&#10;-9 9 5 24 17 20 49 22 37 3 -3 -5 2 -9 10 -9 18 0 10 29 -13 47 -9 7 -11 12&#10;-6 13 16 0 28 -12 58 -55 30 -44 83 -108 72 -87 -4 7 -1 20 7 29 9 12 9 15 1&#10;9 -8 -4 -13 -1 -13 9 0 9 5 13 11 9 7 -4 10 -1 7 7 -3 8 -11 13 -17 11 -7 -1&#10;-10 2 -6 8 18 30 -118 198 -185 227 -19 8 -42 21 -50 28 -16 13 -202 77 -216&#10;74 -5 -1 -22 3 -39 10 -32 13 -156 8 -216 -9 -31 -9 -31 -9 -14 10 13 14 14&#10;20 5 20 -14 0 -78 -44 -96 -67 -9 -10 -18 -11 -38 -3 -43 16 -54 12 -68 -26&#10;-10 -28 -14 -31 -19 -17 -3 10 -2 21 4 25 7 4 6 12 -3 23 -10 11 -15 13 -20 4&#10;-11 -16 -30 -2 -30 22 0 11 -7 19 -16 19 -8 0 -12 -4 -9 -10 3 -5 -1 -10 -9&#10;-10 -8 0 -19 6 -23 13 -13 20 -61 38 -69 25z"/>
    <path d="M1426 2798 c-9 -14 -34 -33 -55 -44 -77 -37 -76 -83 1 -64 25 7 56&#10;10 69 7 23 -4 23 -4 -3 -6 -24 -1 -27 -6 -33 -51 -6 -42 -12 -53 -36 -65 -28&#10;-15 -29 -15 -35 12 -4 16 -11 34 -17 41 -8 10 -5 14 11 19 21 5 31 23 14 23&#10;-16 0 -50 -45 -61 -82 -7 -20 -20 -39 -29 -41 -13 -4 -14 -5 -2 -6 12 -1 19&#10;-23 27 -87 14 -103 35 -142 90 -170 23 -12 40 -24 37 -26 -2 -3 8 -4 23 -2 23&#10;4 25 3 8 -5 -17 -7 -13 -10 25 -20 25 -7 57 -17 72 -23 l28 -10 -20 -28 c-11&#10;-16 -20 -33 -20 -39 0 -6 -7 -11 -15 -11 -9 0 -15 -9 -15 -21 0 -12 -11 -30&#10;-24 -40 -13 -10 -26 -32 -29 -49 -6 -28 -37 -44 -37 -19 0 5 -5 7 -11 3 -10&#10;-6 -9 -26 7 -106 4 -19 12 -28 25 -28 10 0 19 -4 19 -10 0 -5 11 -10 25 -10&#10;14 0 24 3 24 8 -3 20 2 32 16 32 10 0 14 -10 14 -32 0 -33 16 -85 38 -123 10&#10;-17 13 -17 28 -5 20 16 50 17 85 2 30 -12 70 -49 70 -63 0 -6 6 -9 13 -6 7 3&#10;24 -4 38 -14 20 -16 22 -20 9 -29 -8 -5 -31 -10 -51 -10 -44 0 -69 -25 -69&#10;-68 0 -23 5 -32 16 -32 9 0 28 -12 41 -26 22 -24 25 -25 42 -10 19 17 120 56&#10;146 56 8 0 15 4 15 8 0 5 16 17 35 28 19 10 35 24 35 30 0 17 -34 44 -61 49&#10;-63 11 -107 29 -139 55 l-34 28 42 12 43 11 -23 18 c-21 18 -22 19 -4 45 18&#10;29 45 29 75 0 12 -11 16 -11 27 3 10 15 17 15 49 5 27 -8 44 -8 57 -1 13 7 23&#10;7 33 -1 7 -6 17 -10 21 -9 24 4 34 -3 34 -26 0 -22 4 -25 33 -25 19 0 48 -7&#10;64 -15 22 -11 38 -13 54 -6 35 13 79 70 79 102 0 15 5 31 11 34 6 4 9 25 7 47&#10;-2 30 2 44 16 54 13 9 16 19 11 31 -5 10 -9 23 -9 28 -1 6 -12 12 -25 13 -19&#10;3 -21 6 -10 13 11 7 9 9 -8 9 -12 0 -25 -4 -28 -10 -3 -5 -2 -10 4 -10 5 0 9&#10;-12 8 -27 -3 -40 -17 -32 -41 25 -12 27 -34 63 -51 80 -16 18 -30 35 -30 40 0&#10;4 -4 13 -9 20 -10 17 1 29 15 15 7 -7 21 -6 47 2 20 7 64 17 97 21 l60 9 -60&#10;6 -60 6 65 2 c88 2 150 18 179 44 26 24 51 76 50 104 0 10 -7 0 -15 -22 -14&#10;-38 -50 -85 -65 -85 -4 0 -11 9 -14 20 -4 11 -19 32 -33 45 -15 14 -21 25 -14&#10;25 6 0 12 -6 13 -12 1 -7 4 -2 8 12 4 15 29 40 61 62 l55 37 5 -32 c5 -28 7&#10;-25 13 23 7 57 1 122 -15 152 -18 36 -112 68 -233 81 -29 3 -29 3 -7 13 l24&#10;10 -29 14 c-61 29 -167 29 -221 0 -20 -10 -30 -19 -22 -20 13 0 13 -1 0 -10&#10;-13 -9 -13 -11 0 -20 11 -7 5 -10 -25 -11 -22 0 -35 -3 -28 -5 8 -4 7 -14 -5&#10;-36 -13 -24 -14 -32 -4 -35 10 -4 10 -8 1 -20 -10 -11 -10 -25 0 -65 11 -42&#10;11 -52 0 -59 -7 -4 -18 -4 -25 2 -15 12 -38 -15 -30 -36 7 -18 26 -20 26 -2 0&#10;8 4 7 10 -3 6 -9 10 -11 10 -3 0 7 7 10 17 6 13 -5 15 -3 9 13 -6 15 -5 16 5&#10;7 9 -9 9 -16 1 -25 -13 -16 1 -44 17 -34 6 4 11 4 11 -1 1 -13 74 -89 98 -102&#10;13 -7 42 -16 65 -21 35 -6 37 -8 12 -8 -16 -1 -47 5 -67 12 -33 12 -37 11 -41&#10;-5 -3 -12 -11 -16 -25 -12 -11 2 -23 0 -26 -6 -5 -7 -1 -8 10 -4 12 5 15 3 9&#10;-6 -4 -7 -3 -16 2 -20 41 -29 70 -119 43 -136 -14 -8 -2 -61 28 -123 23 -49&#10;31 -106 18 -119 -3 -3 -32 6 -63 20 -39 17 -83 27 -131 31 -45 3 -80 10 -90&#10;19 -10 9 -38 18 -65 22 -26 4 -50 11 -52 16 -8 12 29 29 83 39 84 15 252 79&#10;212 80 -13 0 -13 2 -1 9 24 15 5 41 -31 41 -31 0 -65 -17 -96 -47 -8 -7 -19&#10;-10 -25 -6 -8 5 -6 9 6 11 36 7 12 58 -36 75 -22 8 -64 -17 -48 -28 6 -3 11&#10;-10 11 -15 0 -6 -15 -1 -32 10 -39 24 -81 26 -98 5 -7 -8 -19 -15 -27 -15 -8&#10;0 -11 -4 -8 -10 3 -6 -1 -7 -9 -4 -16 6 -21 22 -18 57 1 10 20 38 43 62 22 24&#10;52 65 66 92 14 26 38 65 54 85 16 20 29 42 29 48 0 6 5 8 10 5 6 -3 10 3 10&#10;14 0 12 5 21 11 21 5 0 7 5 4 10 -3 6 -2 10 4 10 6 0 8 6 5 14 -4 9 5 15 26&#10;18 25 4 34 1 40 -16 7 -17 9 -18 9 -4 1 20 -40 50 -60 46 -9 -2 -14 6 -14 22&#10;0 14 -7 28 -15 32 -13 6 -12 7 1 7 21 1 30 23 18 42 -4 8 -34 19 -66 26 -52&#10;11 -53 12 -13 8 25 -2 52 1 60 6 11 8 10 9 -7 4 -14 -4 -23 -2 -23 4 0 6 -7&#10;11 -15 11 -8 0 -15 6 -15 14 0 17 -59 62 -76 58 -8 -2 -14 2 -14 8 0 5 -8 10&#10;-18 10 -10 0 -23 5 -29 11 -7 7 -69 13 -151 16 l-140 6 -16 -25z m1097 -207&#10;c8 -8 17 -5 30 7 18 16 20 16 33 -3 8 -10 14 -29 14 -41 0 -12 2 -29 6 -37 5&#10;-15 -24 -39 -64 -51 -20 -7 -32 1 -73 45 -28 30 -47 59 -44 67 3 7 5 17 5 21&#10;0 10 82 3 93 -8z"/>
    <path d="M 1315 1611 C 1312 1606 1314 1599 1320 1595 C 1325 1592 1330 1582 1330 1575 C 1330 1559 1399 1447 1412 1442 C 1416 1440 1420 1433 1420 1427 C 1420 1420 1428 1410 1438 1403 C 1449 1397 1467 1371 1478 1347 C 1490 1322 1509 1299 1520 1295 C 1531 1292 1540 1282 1540 1274 C 1540 1253 1565 1246 1591 1260 C 1611 1271 1617 1268 1647 1237 C 1710 1169 1740 1063 1699 1053 C 1684 1049 1682 1045 1691 1039 C 1702 1033 1702 1022 1691 981 C 1679 934 1680 928 1699 904 C 1723 874 1727 809 1707 792 C 1699 785 1662 782 1619 783 C 1553 785 1536 790 1466 828 C 1422 852 1381 879 1374 888 C 1349 921 1331 999 1341 1033 C 1346 1051 1350 1080 1350 1098 C 1350 1128 1348 1130 1330 1120 C 1319 1114 1303 1096 1295 1079 C 1278 1048 1260 1037 1195 1021 C 1168 1014 1124 985 1065 935 C 966 851 742 704 646 659 C 612 643 558 627 525 624 L 465 618 C 465 618 331 439 195 290 C 111 199 70 132 57 65 C 54 49 48 27 45 17 C 38 1 136 0 2019 0 L 4000 0 L 4000 253 L 4000 505 L 3948 558 C 3888 620 3839 655 3750 699 C 3715 717 3681 735 3675 740 C 3669 745 3631 761 3590 776 C 3509 805 3485 821 3502 838 C 3515 851 3310 942 3310 942 L 3277 949 C 3260 953 3236 962 3225 968 C 3214 974 3160 999 3105 1025 C 3050 1051 2996 1080 2985 1090 C 2956 1116 2910 1136 2866 1143 C 2838 1148 2814 1161 2784 1191 C 2752 1222 2726 1236 2676 1250 C 2640 1260 2608 1265 2606 1261 C 2603 1257 2613 1236 2627 1214 C 2655 1174 2663 1114 2643 1102 C 2637 1098 2626 1075 2619 1051 C 2603 998 2562 965 2435 904 C 2335 857 2265 832 2141 800 C 2038 773 2011 780 2017 832 C 2027 923 2023 961 1999 987 C 1975 1012 1893 1055 1876 1051 C 1860 1047 1810 1061 1810 1069 C 1810 1086 1993 1187 2065 1210 C 2099 1221 2102 1224 2085 1231 C 2043 1249 2005 1263 1993 1266 C 1949 1275 1908 1294 1900 1311 C 1894 1321 1882 1330 1874 1330 C 1859 1330 1774 1384 1757 1405 C 1752 1411 1750 1408 1754 1398 C 1757 1388 1755 1378 1750 1375 C 1744 1371 1740 1374 1740 1379 C 1740 1385 1736 1390 1730 1390 C 1716 1390 1718 1362 1733 1357 C 1742 1354 1742 1350 1732 1337 C 1724 1328 1721 1317 1724 1312 C 1727 1306 1722 1296 1713 1289 C 1700 1278 1696 1278 1692 1288 C 1689 1298 1685 1298 1675 1290 C 1664 1281 1657 1285 1645 1304 C 1635 1318 1622 1330 1616 1330 C 1605 1330 1584 1347 1508 1416 C 1494 1429 1479 1440 1476 1440 C 1464 1440 1360 1553 1354 1573 C 1345 1601 1323 1623 1315 1611 Z"/>
  </g>
</svg>